<?xml version="1.0" encoding="UTF-8"?>
<svg id="_Слой_1" data-name="Слой_1" xmlns="http://www.w3.org/2000/svg" viewBox="0 0 85.23 76.71">
  <defs>
    <style>
      .cls-1 {
        fill-rule: evenodd;
      }

      .cls-1, .cls-2 {
        fill: #d95009;
      }
    </style>
  </defs>
  <path class="cls-1" d="M42.6,54.94c15.08,0,27.39-12.36,27.39-27.45S57.68,0,42.6,0,15.24,12.36,15.24,27.49s12.28,27.45,27.36,27.45"/>
  <path class="cls-2" d="M39.78,71.17v-28.76c0-1.41.34-2.49.83-3.27.48-.78,1.19-1.11,2.02-1.11s1.54.33,2,1.11c.48.63.83,1.86.83,3.27v28.76c0,1.56-.34,2.67-.83,3.45-.46.78-1.17,1.08-2,1.08s-1.54-.45-2.02-1.08c-.48-.78-.83-1.89-.83-3.45"/>
  <path class="cls-1" d="M2.83,71.04h79.56c1.56,0,2.83,1.28,2.83,2.83h0c0,1.56-1.28,2.83-2.83,2.83H2.83c-1.56,0-2.83-1.28-2.83-2.83h0c0-1.56,1.28-2.83,2.83-2.83"/>
</svg>