<svg aria-hidden="true" style="position: absolute; width: 0; height: 0; overflow: hidden;" version="1.1" xmlns="http://www.w3.org/2000/svg" xmlns:xlink="http://www.w3.org/1999/xlink">
<defs>
<symbol id="icon-arrow" viewBox="0 0 32 32">
<path d="M16 20.533l-8-8 1.867-1.867 6.133 6.133 6.133-6.133 1.867 1.867-8 8z"></path>
</symbol>
<symbol id="icon-delete" viewBox="0 0 32 32">
<path d="M9.333 28c-0.733 0-1.361-0.261-1.883-0.783s-0.783-1.15-0.783-1.883v-17.333h-1.333v-2.667h6.667v-1.333h8v1.333h6.667v2.667h-1.333v17.333c0 0.733-0.261 1.361-0.783 1.883s-1.15 0.783-1.883 0.783h-13.333zM22.667 8h-13.333v17.333h13.333v-17.333zM12 22.667h2.667v-12h-2.667v12zM17.333 22.667h2.667v-12h-2.667v12z"></path>
</symbol>
<symbol id="icon-edit" viewBox="0 0 32 32">
<path d="M6.667 25.333h1.9l13.033-13.033-1.9-1.9-13.033 13.033v1.9zM4 28v-5.667l17.6-17.567c0.267-0.244 0.561-0.433 0.883-0.567s0.661-0.2 1.017-0.2c0.356 0 0.7 0.067 1.033 0.2s0.622 0.333 0.867 0.6l1.833 1.867c0.267 0.244 0.461 0.533 0.583 0.867s0.183 0.667 0.183 1c0 0.356-0.061 0.694-0.183 1.017s-0.317 0.617-0.583 0.883l-17.567 17.567h-5.667zM20.633 11.367l-0.933-0.967 1.9 1.9-0.967-0.933z"></path>
</symbol>
</defs>
</svg>
